<?xml version="1.0" standalone="no"?>
<!DOCTYPE svg PUBLIC "-//W3C//DTD SVG 20010904//EN"
 "http://www.w3.org/TR/2001/REC-SVG-20010904/DTD/svg10.dtd">
<svg version="1.0" xmlns="http://www.w3.org/2000/svg"
 width="230.000000pt" height="230.000000pt" viewBox="0 0 230.000000 230.000000"
 preserveAspectRatio="xMidYMid meet">

<g transform="translate(0.000000,230.000000) scale(0.100000,-0.100000)"
fill="#000000" stroke="none">
<path d="M1419 2009 c-127 -18 -248 -91 -330 -197 l-26 -33 -64 17 c-84 22
-234 23 -318 0 -231 -60 -412 -242 -471 -472 -88 -343 125 -702 470 -791 86
-22 236 -22 320 0 118 31 207 83 295 171 91 92 142 178 174 296 20 71 21 100
21 547 0 260 -3 472 -7 472 -5 -1 -33 -5 -64 -10z"/>
<path d="M1704 966 c-86 -40 -137 -120 -138 -216 -3 -223 264 -333 418 -172
15 17 25 35 21 41 -3 7 -1 10 5 9 16 -4 38 57 39 108 4 184 -180 307 -345 230z"/>
</g>
</svg>
