<?xml version="1.0" standalone="no"?>
<!DOCTYPE svg PUBLIC "-//W3C//DTD SVG 20010904//EN"
 "http://www.w3.org/TR/2001/REC-SVG-20010904/DTD/svg10.dtd">
<svg version="1.0" xmlns="http://www.w3.org/2000/svg"
 width="246.000000pt" height="246.000000pt" viewBox="0 0 246.000000 246.000000"
 preserveAspectRatio="xMidYMid meet">

<g transform="translate(0.000000,246.000000) scale(0.100000,-0.100000)"
fill="#000000" stroke="none">
<path d="M547 1494 c-3 -4 0 -19 8 -35 19 -36 19 -82 0 -118 -15 -31 -69 -61
-107 -61 l-23 0 5 -107 c7 -146 35 -194 131 -221 88 -24 176 22 214 110 23 57
21 279 -4 333 -21 46 -54 79 -94 94 -31 12 -120 15 -130 5z"/>
<path d="M1781 1491 c-10 -6 -11 -13 -2 -29 6 -11 11 -39 11 -62 0 -55 -30
-96 -81 -111 l-39 -12 0 -99 c0 -79 4 -107 20 -138 34 -67 112 -104 192 -90
46 8 79 30 115 76 27 36 28 42 32 173 2 82 -1 150 -8 172 -15 49 -56 98 -98
115 -36 16 -121 18 -142 5z"/>
</g>
</svg>
